HIERARCHY
ROOT Hips
{
	OFFSET 0.00 0.00 0.00
	CHANNELS 6 Xposition Yposition Zposition Xrotation Yrotation Zrotation
	JOINT Spine
	{
		OFFSET 0.00000 1.92919 2.89379
		CHANNELS 3 Xrotation Yrotation Zrotation
		JOINT Spine1
		{
			OFFSET 0.00000 0.67000 3.79977
			CHANNELS 3 Xrotation Yrotation Zrotation
			JOINT Spine2
			{
				OFFSET 0.00000 0.33628 3.84370
				CHANNELS 3 Xrotation Yrotation Zrotation
				JOINT Spine3
				{
					OFFSET 0.00000 0.00000 3.85838
					CHANNELS 3 Xrotation Yrotation Zrotation
					JOINT Neck
					{
						OFFSET 0.00000 -1.44688 10.12826
						CHANNELS 3 Xrotation Yrotation Zrotation
						JOINT Head
						{
							OFFSET 0.00000 -0.92125 5.22468
							CHANNELS 3 Xrotation Yrotation Zrotation
							End Site
							{
								OFFSET 0.00000 0.00001 6.24576
							}
						}
					}
					JOINT RightShoulder
					{
						OFFSET -1.19724 -1.99539 6.46510
						CHANNELS 3 Xrotation Yrotation Zrotation
						JOINT RightArm
						{
							OFFSET -5.94629 0.00000 0.00000
							CHANNELS 3 Xrotation Yrotation Zrotation
							JOINT RightForeArm
							{
								OFFSET -11.02134 0.00000 0.00000
								CHANNELS 3 Xrotation Yrotation Zrotation
								JOINT RightHand
								{
									OFFSET -10.43440 0.00000 0.00000
									CHANNELS 3 Xrotation Yrotation Zrotation
									JOINT RightHandEnd
									{
										OFFSET -2.82937 0.00000 0.00000
										CHANNELS 3 Xrotation Yrotation Zrotation
										End Site
										{
											OFFSET -2.82937 0.00000 0.00000
										}
									}
									JOINT RightHandThumb1
									{
										OFFSET -1.13175 -1.88625 -0.75450
										CHANNELS 3 Yrotation Xrotation Zrotation
										End Site
										{
											OFFSET -2.73296 -0.73229 0.00000
										}
									}
								}
							}
						}
					}
					JOINT LeftShoulder
					{
						OFFSET 1.19724 -1.99539 6.46510
						CHANNELS 3 Xrotation Yrotation Zrotation
						JOINT LeftArm
						{
							OFFSET 5.94629 0.00000 0.00000
							CHANNELS 3 Xrotation Yrotation Zrotation
							JOINT LeftForeArm
							{
								OFFSET 11.02134 0.00000 0.00000
								CHANNELS 3 Xrotation Yrotation Zrotation
								JOINT LeftHand
								{
									OFFSET 10.43440 0.00000 0.00000
									CHANNELS 3 Xrotation Yrotation Zrotation
									JOINT LeftHandEnd
									{
										OFFSET 2.82937 0.00000 0.00000
										CHANNELS 3 Xrotation Yrotation Zrotation
										End Site
										{
											OFFSET 2.82937 0.00000 0.00000
										}
									}
									JOINT LeftHandThumb1
									{
										OFFSET 1.13175 -1.88625 -0.75450
										CHANNELS 3 Yrotation Xrotation Zrotation
										End Site
										{
											OFFSET 2.73296 -0.73229 0.00000
										}
									}
								}
							}
						}
					}
				}
			}
		}
	}
	JOINT RightUpLeg
	{
		OFFSET -3.55181 0.00000 -1.03761
		CHANNELS 3 Xrotation Yrotation Zrotation
		JOINT RightLeg
		{
			OFFSET 0.00001 0.00000 -15.86106
			CHANNELS 3 Xrotation Yrotation Zrotation
			JOINT RightFoot
			{
				OFFSET 0.00001 0.00000 -16.30493
				CHANNELS 3 Xrotation Yrotation Zrotation
				JOINT RightToeBase
				{
					OFFSET 0.00000 -5.76215 -2.09725
					CHANNELS 3 Xrotation Yrotation Zrotation
					End Site
					{
						OFFSET 0.00000 -2.87338 -0.00000
					}
				}
			}
		}
	}
	JOINT LeftUpLeg
	{
		OFFSET 3.55181 0.00000 -1.03761
		CHANNELS 3 Xrotation Yrotation Zrotation
		JOINT LeftLeg
		{
			OFFSET 0.00001 0.00000 -15.86106
			CHANNELS 3 Xrotation Yrotation Zrotation
			JOINT LeftFoot
			{
				OFFSET 0.00001 0.00000 -16.30493
				CHANNELS 3 Xrotation Yrotation Zrotation
				JOINT LeftToeBase
				{
					OFFSET 0.00000 -5.76215 -2.09725
					CHANNELS 3 Xrotation Yrotation Zrotation
					End Site
					{
						OFFSET 0.00000 -2.87338 -0.00000
					}
				}
			}
		}
	}
}
MOTION
Frames: 9
Frame Time: 0.008342
 -1.6944 -19.9041 35.3846 1.2863 0.4475 -25.1971 3.5012 -1.6912 0.4651 0.5318 0.1641 -0.0548 7.2132 0.4818 -2.0905 3.6554 0.9302 -1.1670 11.1491 2.8120 -3.7074 6.3993 3.7019 -3.5371 6.3009 -4.5258 10.0046 -34.2418 -36.6879 -5.3852 0.0000 0.0000 30.6391 -46.8217 1.8661 6.5966 0.0000 -0.0000 -0.0000 0.0000 -0.0000 -0.0000 6.7518 1.9754 -10.6664 -0.0989 24.0818 -26.9794 -0.0001 -0.0001 -84.8675 -21.9310 -10.3518 9.1499 -0.0000 0.0000 0.0000 -0.0000 0.0000 -0.0000 -14.3216 -2.4016 -3.6275 30.0928 0.0000 0.0000 -10.6901 4.0615 -12.1847 -6.2439 0.0000 -0.0000 -34.9820 2.4677 4.4148 35.8699 0.0000 0.0000 14.3188 9.6068 -1.7472 -16.7491 0.0000 -0.0000
 -1.7409 -19.6893 35.3893 1.4376 0.5290 -24.9105 3.5567 -1.6346 0.4499 0.5499 0.1617 -0.0561 7.1816 0.4241 -2.0113 3.6410 0.8927 -1.0936 11.0369 2.7115 -3.6042 6.2943 3.6862 -3.2976 6.3398 -4.6487 10.1043 -34.6094 -36.9167 -5.6030 0.0000 0.0000 31.6440 -46.7311 1.6948 6.6066 0.0000 -0.0000 -0.0000 -0.0000 -0.0000 0.0000 6.4156 2.0108 -11.0926 -1.1651 23.5959 -26.9286 -0.0001 -0.0001 -83.5092 -22.0843 -9.9780 8.8397 0.0000 -0.0000 -0.0000 -0.0000 -0.0000 0.0000 -14.3962 -2.6338 -4.3899 29.4796 0.0000 0.0000 -10.4243 4.4276 -11.9419 -5.9533 0.0000 -0.0000 -35.6945 2.0902 4.5095 37.7180 0.0000 0.0000 12.6875 9.8109 0.4979 -18.1348 0.0000 -0.0000
 -1.7902 -19.4821 35.3919 1.5719 0.6374 -24.6589 3.6082 -1.5881 0.4339 0.5647 0.1726 -0.0532 7.1493 0.3598 -1.9524 3.6318 0.8522 -1.0233 10.9432 2.6123 -3.4773 6.2055 3.6839 -3.0234 6.3633 -4.7748 10.2011 -34.9451 -37.1988 -5.7761 0.0000 0.0000 32.6238 -46.6878 1.5051 6.6000 -0.0000 -0.0000 0.0000 -0.0000 -0.0000 0.0000 6.0842 2.0294 -11.4967 -2.1711 23.1410 -26.9243 -0.0000 -0.0001 -82.0862 -22.2832 -9.5889 8.5275 0.0000 0.0000 -0.0000 -0.0000 -0.0000 0.0000 -14.4748 -2.8828 -5.1210 28.9494 0.0000 0.0000 -10.1641 4.7424 -11.6844 -5.6927 0.0000 -0.0000 -36.3248 1.6979 4.6077 39.7671 0.0000 0.0000 10.8931 9.4601 2.7883 -19.3975 0.0000 -0.0000
 -1.8422 -19.2830 35.3927 1.6871 0.7730 -24.4281 3.6561 -1.5527 0.4217 0.5803 0.1899 -0.0501 7.1137 0.2929 -1.9190 3.6264 0.8137 -0.9616 10.8675 2.5097 -3.3304 6.1336 3.6967 -2.7138 6.3778 -4.8931 10.2880 -35.2547 -37.5548 -5.9144 0.0000 0.0000 33.5832 -46.6820 1.3082 6.5880 0.0000 -0.0000 -0.0000 -0.0000 0.0000 -0.0000 5.7619 2.0266 -11.8811 -3.1162 22.7134 -26.9635 -0.0000 -0.0001 -80.6000 -22.5283 -9.1863 8.2085 -0.0000 0.0000 0.0000 0.0000 -0.0000 0.0000 -14.5512 -3.1461 -5.8477 28.4948 0.0000 0.0000 -9.9150 5.0197 -11.4162 -5.4493 0.0000 -0.0000 -36.8485 1.3022 4.6888 41.9638 0.0000 0.0000 9.0840 8.6289 5.0640 -20.4901 0.0000 -0.0000
 -1.8965 -19.0937 35.3929 1.7571 0.9325 -24.2032 3.7206 -1.5199 0.4156 0.6009 0.2162 -0.0505 7.0746 0.2220 -1.9143 3.6229 0.7780 -0.9138 10.8086 2.4044 -3.1672 6.0766 3.7242 -2.3703 6.3846 -4.9944 10.3584 -35.5323 -37.9982 -6.0213 0.0000 0.0000 34.5264 -46.6991 1.1161 6.5848 -0.0000 -0.0000 -0.0000 0.0000 -0.0000 0.0000 5.4524 2.0012 -12.2489 -4.0009 22.3114 -27.0431 -0.0000 -0.0001 -79.0523 -22.8081 -8.7735 7.8788 0.0000 -0.0000 0.0000 0.0000 0.0000 -0.0000 -14.5923 -3.4053 -6.6005 28.1000 0.0000 0.0000 -9.6822 5.2758 -11.1314 -5.2173 0.0000 -0.0000 -37.2137 0.9281 4.7413 44.2373 0.0000 0.0000 7.3898 7.4348 7.2760 -21.3824 0.0000 -0.0000
 -1.9524 -18.9104 35.3913 1.8369 1.1129 -23.9702 3.7582 -1.5085 0.4144 0.6283 0.2452 -0.0528 7.0248 0.1502 -1.9473 3.6210 0.7460 -0.8769 10.7631 2.2926 -2.9953 6.0329 3.7659 -1.9930 6.3849 -5.0784 10.4073 -35.7642 -38.5323 -6.0931 0.0000 0.0000 35.4606 -46.7285 0.9490 6.6011 -0.0000 0.0000 0.0000 0.0000 -0.0000 0.0000 5.1544 1.9454 -12.6068 -4.8262 21.9423 -27.1562 -0.0000 -0.0001 -77.4475 -23.1041 -8.3559 7.5358 -0.0000 -0.0000 0.0000 0.0000 0.0000 -0.0000 -14.6557 -3.6864 -7.3871 27.7567 0.0000 0.0000 -9.4551 5.5191 -10.8578 -5.0015 0.0000 -0.0000 -37.4757 0.5637 4.7439 46.5490 0.0000 0.0000 5.9037 6.0239 9.3764 -22.0603 0.0000 -0.0000
 -2.0086 -18.7341 35.3894 1.8992 1.3023 -23.7174 3.7953 -1.4984 0.4130 0.6524 0.2726 -0.0540 6.9740 0.0811 -2.0227 3.6180 0.7172 -0.8534 10.7266 2.1759 -2.8142 5.9986 3.8208 -1.5862 6.3796 -5.1386 10.4404 -35.9513 -39.1587 -6.1427 0.0000 0.0000 36.3956 -46.7553 0.8177 6.6461 0.0000 -0.0000 0.0000 -0.0000 0.0000 -0.0000 4.8801 1.8695 -12.9502 -5.6029 21.5883 -27.3107 -0.0000 -0.0001 -75.7839 -23.3995 -7.9404 7.1741 -0.0000 0.0000 0.0000 -0.0000 0.0000 -0.0000 -14.7101 -3.9621 -8.2240 27.4454 0.0000 0.0000 -9.2344 5.7616 -10.5901 -4.8055 0.0000 -0.0000 -37.5934 0.2388 4.7015 48.8297 0.0000 0.0000 4.6747 4.5493 11.3392 -22.5299 0.0000 -0.0000
 -2.0636 -18.5642 35.3876 1.9419 1.4883 -23.4359 3.8285 -1.4856 0.4095 0.6824 0.3067 -0.0587 6.9182 0.0091 -2.1345 3.6130 0.6958 -0.8419 10.6949 2.0531 -2.6323 5.9696 3.8868 -1.1530 6.3754 -5.1773 10.4523 -36.0906 -39.8733 -6.1630 0.0000 0.0000 37.3353 -46.7664 0.7357 6.7244 0.0000 0.0000 -0.0000 -0.0000 -0.0000 0.0000 4.6193 1.7713 -13.2974 -6.3298 21.2543 -27.4853 -0.0000 -0.0001 -74.0737 -23.6686 -7.5381 6.7943 0.0000 -0.0000 0.0000 0.0000 0.0000 0.0000 -14.7540 -4.2186 -9.1129 27.1527 0.0000 0.0000 -9.0165 6.0093 -10.3329 -4.6355 0.0000 -0.0000 -37.5652 -0.0312 4.6215 51.0303 0.0000 0.0000 3.7063 3.1515 13.1428 -22.8114 0.0000 -0.0000
 -2.1160 -18.3992 35.3862 1.9714 1.6576 -23.1220 3.8572 -1.4616 0.4001 0.7133 0.3453 -0.0633 6.8552 -0.0635 -2.2794 3.6076 0.6774 -0.8438 10.6619 1.9301 -2.4498 5.9427 3.9600 -0.6995 6.3697 -5.1944 10.4474 -36.1790 -40.6666 -6.1595 -0.0000 0.0000 38.2885 -46.7495 0.7123 6.8344 -0.0000 0.0000 0.0000 -0.0000 -0.0000 0.0000 4.3716 1.6645 -13.6503 -7.0111 20.9285 -27.6787 -0.0000 -0.0001 -72.3204 -23.8910 -7.1550 6.3938 -0.0000 -0.0000 -0.0000 0.0000 0.0000 -0.0000 -14.7961 -4.4467 -10.0433 26.8672 0.0000 0.0000 -8.7963 6.2638 -10.0954 -4.4956 0.0000 -0.0000 -37.4052 -0.2385 4.5170 53.1131 0.0000 0.0000 2.9660 1.9409 14.7683 -22.9421 0.0000 -0.0000
